<svg width="28" height="27" viewBox="0 0 28 27" fill="none" xmlns="http://www.w3.org/2000/svg">
<path d="M14.6288 14.8869C14.6091 14.6225 14.4493 14.3877 14.2095 14.2733V15.5017C14.4493 15.3861 14.6091 15.1525 14.6288 14.8869Z" fill="#455A64"/>
<path d="M12.8983 11.3872C12.645 11.4856 12.479 11.7303 12.479 12.0021C12.479 12.2738 12.645 12.5173 12.8983 12.6157V11.3872Z" fill="#455A64"/>
<path d="M4.50321 0.0655103L0.130346 3.34508C0.0479565 3.40657 0 3.50371 0 3.60701C0 3.7103 0.0479565 3.80744 0.130346 3.86893L4.50321 7.1485C4.60282 7.22351 4.73562 7.23458 4.84628 7.17924C4.95818 7.12391 5.02827 7.01077 5.02827 6.88658V5.24619C5.02827 5.06543 5.1746 4.91908 5.35538 4.91908H7.42984C7.36344 4.96581 7.29457 5.00885 7.23063 5.05681H7.23186C7.07446 5.47121 6.72031 5.77987 6.28747 5.87579C6.19524 5.96064 6.10424 6.05286 6.01202 6.14509V6.8866C6.00956 7.60966 5.423 8.19622 4.69994 8.19745C4.62493 8.19868 4.55114 8.1913 4.47736 8.17778C3.54773 9.77758 3.05831 11.5949 3.06077 13.4444C3.06077 19.2423 5.68367 21.9697 12.2428 23.9372C13.1983 24.2237 16.1778 24.5926 16.1778 24.5926H21.7519V24.5939C21.838 24.5939 21.9216 24.6283 21.9831 24.6898C22.0446 24.7513 22.079 24.8349 22.079 24.921V26.5614C22.079 26.6855 22.1491 26.7987 22.261 26.854C22.3717 26.9093 22.5045 26.8983 22.6041 26.8233L26.977 23.5437C27.0594 23.4822 27.1073 23.3851 27.1073 23.2818C27.1073 23.1785 27.0594 23.0813 26.977 23.0199L22.6041 19.7403C22.5045 19.6653 22.3717 19.6542 22.261 19.7095C22.1491 19.7649 22.079 19.878 22.079 20.0022V21.6426C22.079 21.7287 22.0446 21.8123 21.9831 21.8738C21.9216 21.9353 21.838 21.9697 21.7519 21.9697H19.1745C19.3245 21.393 19.8435 20.9896 20.4399 20.9859H20.853L21.0953 20.7437V20.0022C21.0977 19.2791 21.6843 18.6926 22.4074 18.6913C22.4824 18.6901 22.5574 18.6975 22.6299 18.711C23.5596 17.1112 24.049 15.2939 24.0465 13.4444C24.0465 7.64647 18.1749 4.04486 14.8645 2.95156H14.8657C13.5684 2.65521 12.2539 2.4351 10.9307 2.29492H5.35533C5.17456 2.29492 5.02822 2.14859 5.02822 1.96781V0.327429C5.02822 0.203232 4.95813 0.0900995 4.84623 0.0347641C4.73556 -0.0205712 4.6028 -0.00949872 4.50321 0.0655103ZM13.5537 6.88657C15.2924 6.88657 16.9611 7.57765 18.1907 8.80734C19.4203 10.037 20.1114 11.7057 20.1114 13.4443C20.1114 15.183 19.4204 16.8517 18.1907 18.0813C16.961 19.3109 15.2923 20.0021 13.5537 20.0021C11.815 20.0021 10.1463 19.311 8.91669 18.0813C7.68709 16.8516 6.99592 15.183 6.99592 13.4443C6.99714 11.7056 7.68945 10.0382 8.91915 8.80955C10.1476 7.57988 11.815 6.88754 13.5539 6.88632L13.5537 6.88657Z" fill="#455A64"/>
<path d="M13.5536 18.6915C14.9457 18.6915 16.2799 18.1382 17.2635 17.1544C18.2472 16.1707 18.8006 14.8365 18.8006 13.4445C18.8006 12.0526 18.2473 10.7183 17.2635 9.73464C16.2798 8.75096 14.9456 8.19754 13.5536 8.19754C12.1617 8.19754 10.8274 8.75089 9.84374 9.73464C8.86006 10.7184 8.30664 12.0526 8.30664 13.4445C8.3091 14.8353 8.86245 16.1695 9.84497 17.1532C10.8287 18.1357 12.163 18.6891 13.5536 18.6915ZM11.1668 12.0021C11.216 11.0146 11.9292 10.1871 12.8982 9.994V9.50949C12.8982 9.14675 13.1909 8.85408 13.5536 8.85408C13.9164 8.85408 14.2091 9.14675 14.2091 9.50949V9.994C15.178 10.1871 15.8913 11.0146 15.9404 12.0021C15.9404 12.3636 15.6466 12.6575 15.285 12.6575C14.9223 12.6575 14.6284 12.3636 14.6284 12.0021C14.6087 11.7365 14.4489 11.5028 14.2091 11.3872V12.8788C15.1781 13.0731 15.8913 13.9007 15.9405 14.8869C15.8913 15.8743 15.1781 16.7019 14.2091 16.895V17.3795C14.2091 17.7422 13.9164 18.0349 13.5537 18.0349C13.1909 18.0349 12.8983 17.7422 12.8983 17.3795V16.895C11.9293 16.7019 11.216 15.8743 11.1669 14.8869C11.1669 14.5254 11.4608 14.2315 11.8223 14.2315C12.185 14.2315 12.4789 14.5254 12.4789 14.8869C12.4986 15.1525 12.6585 15.3862 12.8982 15.5018V14.0101C11.9292 13.8159 11.216 12.9883 11.1668 12.0021Z" fill="#455A64"/>
</svg>
