<svg width="40" height="40" viewBox="0 0 40 40" fill="none" xmlns="http://www.w3.org/2000/svg">
<path d="M2.14208 11.7523H38.4643C38.5457 11.7523 38.6249 11.7256 38.6897 11.6764C38.7545 11.6271 38.8014 11.558 38.8232 11.4796C38.8451 11.4012 38.8406 11.3178 38.8105 11.2421C38.7805 11.1665 38.7265 11.1028 38.6568 11.0607L20.9527 0.380761C20.7567 0.262509 20.5321 0.200012 20.3032 0.200012C20.0743 0.200012 19.8497 0.262509 19.6537 0.380761L1.94964 11.0607C1.87995 11.1027 1.82594 11.1665 1.79587 11.2421C1.76581 11.3178 1.76135 11.4012 1.78317 11.4796C1.80499 11.558 1.85189 11.6271 1.91671 11.6764C1.98152 11.7256 2.06068 11.7523 2.14208 11.7523Z" fill="#1DBBD8"/>
<path d="M37.6078 15.8912C37.7303 15.8912 37.8477 15.8426 37.9343 15.756C38.0209 15.6694 38.0695 15.552 38.0695 15.4296V13.7388C38.0695 13.6164 38.0209 13.4989 37.9343 13.4124C37.8477 13.3258 37.7303 13.2772 37.6078 13.2772H2.99777C2.93714 13.2772 2.87711 13.2891 2.8211 13.3123C2.76509 13.3355 2.7142 13.3695 2.67134 13.4124C2.62847 13.4553 2.59447 13.5061 2.57127 13.5622C2.54807 13.6182 2.53613 13.6782 2.53613 13.7388V15.4296C2.53613 15.4902 2.54807 15.5502 2.57127 15.6062C2.59447 15.6623 2.62847 15.7131 2.67134 15.756C2.7142 15.7989 2.76509 15.8329 2.8211 15.8561C2.87711 15.8793 2.93714 15.8912 2.99777 15.8912H5.59651V32.2292H2.99777C2.93714 32.2292 2.87711 32.2412 2.8211 32.2644C2.76509 32.2876 2.7142 32.3216 2.67134 32.3644C2.62847 32.4073 2.59447 32.4582 2.57127 32.5142C2.54807 32.5702 2.53613 32.6303 2.53613 32.6909V34.3816C2.53613 34.4423 2.54807 34.5023 2.57126 34.5583C2.59446 34.6143 2.62846 34.6652 2.67133 34.7081C2.7142 34.7509 2.76509 34.785 2.8211 34.8082C2.87711 34.8314 2.93714 34.8433 2.99777 34.8433H37.6078C37.6684 34.8433 37.7285 34.8314 37.7845 34.8082C37.8405 34.785 37.8914 34.7509 37.9343 34.7081C37.9771 34.6652 38.0112 34.6143 38.0344 34.5583C38.0576 34.5023 38.0695 34.4423 38.0695 34.3816V32.6909C38.0695 32.5684 38.0209 32.451 37.9343 32.3644C37.8477 32.2779 37.7303 32.2292 37.6078 32.2292H35.0091V15.8912H37.6078ZM17.757 32.2292H10.6882V15.8912H17.757V32.2292ZM29.9174 32.2292H22.8486V15.8912H29.9174V32.2292Z" fill="#1DBBD8"/>
<path d="M1.2644 36.586H39.3411C39.4635 36.586 39.581 36.6347 39.6675 36.7212C39.7541 36.8078 39.8027 36.9252 39.8027 37.0477V38.7384C39.8027 38.8609 39.7541 38.9783 39.6675 39.0649C39.5809 39.1515 39.4635 39.2001 39.3411 39.2001H1.26437C1.14194 39.2001 1.02452 39.1515 0.937944 39.0649C0.851371 38.9783 0.802734 38.8609 0.802734 38.7385V37.0477C0.802734 36.9252 0.851373 36.8078 0.937952 36.7212C1.02453 36.6347 1.14196 36.586 1.2644 36.586Z" fill="#1DBBD8"/>
</svg>
