<svg width="40" height="40" viewBox="0 0 40 40" fill="none" xmlns="http://www.w3.org/2000/svg">
<path fill-rule="evenodd" clip-rule="evenodd" d="M38.1882 8.63153L19.095 0L0 8.63153L1.25075 9.88223H36.9387L38.1882 8.63153ZM24.8139 15.856C24.8139 15.1369 25.4046 14.5463 26.1324 14.5463H38.6919C39.4094 14.5463 40 15.1369 40 15.856V38.6902C40 39.4094 39.4094 40 38.6919 40L26.1324 39.9983C25.4046 39.9983 24.8139 39.4077 24.8139 38.6885V15.856ZM32.4123 21.5157C35.2664 21.5157 37.5785 23.8277 37.5785 26.6817C37.5785 29.5375 35.2663 31.8477 32.4123 31.8477C29.5581 31.8477 27.2461 29.5357 27.2461 26.6817C27.2443 23.8276 29.5582 21.5157 32.4123 21.5157ZM29.1447 29.2703C29.6068 29.0236 30.3068 28.7683 31.231 28.5216C31.3578 28.4035 31.4377 28.1585 31.4863 27.7937C31.0138 27.4793 30.689 26.9478 30.689 26.3468V24.9692C30.689 24.0347 31.4655 23.2564 32.4105 23.2564C33.3555 23.2564 34.1233 24.0347 34.1233 24.9692V26.3468C34.1233 26.9478 33.8089 27.4793 33.326 27.7937C33.3746 28.1585 33.4649 28.4035 33.5918 28.5216C34.5159 28.7682 35.2056 29.0236 35.6781 29.2703C36.2392 28.5528 36.5727 27.6565 36.5727 26.682C36.5727 24.3786 34.7122 22.5095 32.4105 22.5095C30.107 22.5095 28.2378 24.3786 28.2378 26.682C28.2396 27.6565 28.5731 28.5528 29.1447 29.2703ZM25.8163 16.5355V36.8301H39.0046L39.0063 16.5355H25.8163ZM31.714 38.9161C31.4378 38.9161 31.212 38.6886 31.212 38.4141C31.212 38.1379 31.4378 37.9121 31.714 37.9121H33.1124C33.3869 37.9121 33.604 38.1379 33.604 38.4141C33.604 38.6886 33.3886 38.9161 33.1124 38.9161H31.714ZM0.876035 33.5816V34.9591H11.24V33.5816H0.876035ZM11.2418 31.2087H2.2155V32.5863H11.2418V31.2087ZM12.2459 31.2087H23.8203V34.9591H12.2459V31.2087ZM28.6619 11.9775H32.7963V13.5426H28.6619V11.9775ZM5.39465 11.9775H9.52907V29.112H5.39465V11.9775ZM17.0283 11.9775H21.1627V29.112H17.0283V11.9775Z" fill="#1DBBD8"/>
</svg>
