<svg width="35" height="35" viewBox="0 0 35 35" fill="none" xmlns="http://www.w3.org/2000/svg">
<g clip-path="url(#clip0_1958_517)">
<path d="M1.93951 12.7273C1.01224 12.7273 0.394043 12.0909 0.394043 11.1363V4.77271C0.394043 2.06816 2.40312 0 5.03039 0H11.2122C12.1395 0 12.7577 0.636382 12.7577 1.59092C12.7577 2.54547 12.1395 3.18185 11.2122 3.18185H5.03039C4.10312 3.18185 3.48492 3.81823 3.48492 4.77277V11.1364C3.48498 12.0909 2.86678 12.7273 1.93951 12.7273Z" fill="#9AE7F5"/>
<path d="M32.8485 12.7272C31.9212 12.7272 31.303 12.0908 31.303 11.1363V4.77268C31.303 3.81814 30.6848 3.18175 29.7576 3.18175H23.5757C22.6485 3.18175 22.0303 2.54537 22.0303 1.59083C22.0303 0.636287 22.6485 -3.05176e-05 23.5757 -3.05176e-05H29.7576C32.3848 -3.05176e-05 34.3939 2.06813 34.3939 4.77268V11.1363C34.394 12.0908 33.7758 12.7272 32.8485 12.7272Z" fill="#9AE7F5"/>
<path d="M11.2122 34.9999H5.03039C2.40312 34.9999 0.394043 32.9317 0.394043 30.2272V23.8636C0.394043 22.909 1.01224 22.2726 1.93951 22.2726C2.86678 22.2726 3.48498 22.909 3.48498 23.8636V30.2272C3.48498 31.1817 4.10318 31.8181 5.03045 31.8181H11.2123C12.1395 31.8181 12.7577 32.4545 12.7577 33.409C12.7577 34.3635 12.1395 34.9999 11.2122 34.9999Z" fill="#9AE7F5"/>
<path d="M29.7576 35H23.5757C22.6485 35 22.0303 34.3636 22.0303 33.409C22.0303 32.4545 22.6485 31.8181 23.5757 31.8181H29.7576C30.6848 31.8181 31.303 31.1817 31.303 30.2272V23.8636C31.303 22.909 31.9212 22.2726 32.8485 22.2726C33.7758 22.2726 34.394 22.909 34.394 23.8636V30.2272C34.3939 32.9318 32.3848 35 29.7576 35Z" fill="#9AE7F5"/>
<path d="M14.303 15.909H8.12115C7.19388 15.909 6.57568 15.2726 6.57568 14.3181V7.95445C6.57568 6.99991 7.19388 6.36353 8.12115 6.36353H14.303C15.2302 6.36353 15.8484 6.99991 15.8484 7.95445V14.3181C15.8484 15.2726 15.2302 15.909 14.303 15.909ZM9.66662 12.7272H12.7576V9.54531H9.66662V12.7272Z" fill="#1DBBD8"/>
<path d="M14.303 28.6362H8.12115C7.19388 28.6362 6.57568 27.9999 6.57568 27.0453V20.6817C6.57568 19.7271 7.19388 19.0908 8.12115 19.0908H14.303C15.2302 19.0908 15.8484 19.7271 15.8484 20.6817V27.0453C15.8484 27.9999 15.2302 28.6362 14.303 28.6362ZM9.66662 25.4544H12.7576V22.2725H9.66662V25.4544Z" fill="#1DBBD8"/>
<path d="M26.6667 15.909H20.4849C19.5577 15.909 18.9395 15.2726 18.9395 14.3181V7.95445C18.9395 6.99991 19.5577 6.36353 20.4849 6.36353H26.6667C27.594 6.36353 28.2122 6.99991 28.2122 7.95445V14.3181C28.2122 15.2726 27.594 15.909 26.6667 15.909ZM22.0304 12.7272H25.1213V9.54531H22.0304V12.7272Z" fill="#1DBBD8"/>
<path d="M20.4849 23.8635C19.5577 23.8635 18.9395 23.2271 18.9395 22.2726V20.6817C18.9395 19.7271 19.5577 19.0908 20.4849 19.0908C21.4122 19.0908 22.0304 19.7271 22.0304 20.6817V22.2726C22.0304 23.2272 21.4122 23.8635 20.4849 23.8635Z" fill="#1DBBD8"/>
<path d="M26.6666 22.2726H25.1212C24.1939 22.2726 23.5757 21.6362 23.5757 20.6817C23.5757 19.7271 24.1939 19.0908 25.1212 19.0908H26.6666C27.5939 19.0908 28.2121 19.7271 28.2121 20.6817C28.2121 21.6362 27.5939 22.2726 26.6666 22.2726Z" fill="#1DBBD8"/>
<path d="M26.6667 28.6363H22.0303C21.1031 28.6363 20.4849 27.9999 20.4849 27.0454C20.4849 26.0908 21.1031 25.4544 22.0303 25.4544H26.6667C27.5939 25.4544 28.2121 26.0908 28.2121 27.0454C28.2121 27.9999 27.5939 28.6363 26.6667 28.6363Z" fill="#1DBBD8"/>
</g>
<defs>
<clipPath id="clip0_1958_517">
<rect width="34" height="35" fill="white" transform="translate(0.394043)"/>
</clipPath>
</defs>
</svg>
