<svg width="34" height="35" viewBox="0 0 34 35" fill="none" xmlns="http://www.w3.org/2000/svg">
<path fill-rule="evenodd" clip-rule="evenodd" d="M22.0501 20.0901C21.4319 20.0901 20.8711 20.3418 20.4649 20.7466C20.0601 21.1514 19.8084 21.7136 19.8084 22.3318C19.8084 22.95 20.0601 23.5107 20.4649 23.9169C20.8697 24.3217 21.4305 24.5734 22.0501 24.5734C22.6683 24.5734 23.229 24.3218 23.6352 23.9169C24.04 23.5121 24.2917 22.95 24.2917 22.3318C24.2917 21.7136 24.0401 21.1528 23.6352 20.7466C23.2304 20.3418 22.6683 20.0901 22.0501 20.0901ZM32.067 17.9729C31.9658 17.6953 31.9138 17.4245 31.9138 17.155C31.9138 16.8856 31.9658 16.6134 32.067 16.3372L32.7631 14.4525C33.0832 13.5853 33.0887 12.6772 32.822 11.8552C32.5553 11.0346 32.0164 10.3028 31.2464 9.78861L29.575 8.67257C29.3302 8.50844 29.1292 8.3197 28.9705 8.10087C28.8132 7.88341 28.6942 7.63313 28.6149 7.35001L28.0692 5.41609C27.8175 4.52434 27.2882 3.78441 26.5893 3.277C25.8918 2.77095 25.0247 2.49603 24.1001 2.5316L22.0923 2.61093C21.7983 2.62187 21.5247 2.58631 21.2676 2.50425C21.0091 2.42082 20.767 2.28815 20.5372 2.10762L18.9589 0.863005C18.2299 0.287213 17.3669 0 16.5066 0C15.645 0 14.7833 0.287217 14.0543 0.863005L12.476 2.10762C12.2462 2.28815 12.0041 2.42082 11.7457 2.50425C11.4899 2.58768 11.215 2.62324 10.9209 2.61093L8.91314 2.5316C7.98722 2.49468 7.12144 2.76958 6.42391 3.277C5.72501 3.78578 5.19435 4.52434 4.94404 5.41609L4.39833 7.35001C4.319 7.63313 4.20001 7.8834 4.04273 8.10087C3.88408 8.31833 3.68304 8.50846 3.4382 8.67257L1.76688 9.78861C0.996868 10.3029 0.45798 11.0346 0.191284 11.8552C-0.0754181 12.6772 -0.0699456 13.5867 0.250096 14.4525L0.946263 16.3372C1.04747 16.6148 1.09945 16.8856 1.09945 17.155C1.09945 17.4245 1.04747 17.6967 0.946263 17.9729L0.250096 19.8576C-0.0699456 20.7247 -0.0754181 21.6329 0.191284 22.4549C0.457987 23.2755 0.996868 24.0072 1.76688 24.5215L3.4382 25.6375C3.68302 25.8016 3.88405 25.9904 4.04273 26.2092C4.20002 26.4267 4.31901 26.6769 4.39833 26.9601L4.94404 28.894C5.1957 29.7857 5.72501 30.5257 6.42391 31.0331C7.12144 31.5391 7.98858 31.814 8.91314 31.7785L10.9209 31.6991C11.215 31.6882 11.4885 31.7238 11.7457 31.8058C12.0042 31.8892 12.2463 32.0219 12.476 32.2024L14.0543 33.4471C14.7833 34.0229 15.6463 34.3101 16.5066 34.3101C17.3683 34.3101 18.2299 34.0229 18.9589 33.4471L20.5372 32.2024C20.767 32.0219 21.0091 31.8892 21.2676 31.8058C21.5233 31.7224 21.7982 31.6868 22.0923 31.6991L24.1001 31.7785C25.026 31.8154 25.8918 31.5405 26.5893 31.0331C27.2882 30.5243 27.8189 29.7857 28.0692 28.894L28.6149 26.9601C28.6942 26.6769 28.8132 26.4267 28.9705 26.2092C29.1292 25.9917 29.3302 25.8016 29.575 25.6375L31.2464 24.5215C32.0164 24.0072 32.5553 23.2755 32.822 22.4549C33.0887 21.6329 33.0832 20.7234 32.7631 19.8576L32.067 17.9729ZM22.3974 12.4009L11.7513 23.047C11.4367 23.3616 10.9279 23.3616 10.6134 23.047C10.2988 22.7324 10.2988 22.2236 10.6134 21.9091L21.2595 11.263C21.574 10.9484 22.0828 10.9484 22.3974 11.263C22.712 11.5776 22.712 12.0864 22.3974 12.4009ZM13.6837 9.25655C14.3798 9.95272 14.812 10.9156 14.812 11.9796C14.812 13.0424 14.3812 14.0052 13.6837 14.7013C12.9875 15.3975 12.0246 15.8297 10.9619 15.8297C9.89923 15.8297 8.93636 15.3989 8.23887 14.7013C7.5427 14.0052 7.1105 13.0423 7.1105 11.9796C7.1105 10.9169 7.5427 9.95405 8.23887 9.25655C8.93503 8.56038 9.89789 8.12818 10.9619 8.12818C12.0247 8.12818 12.9875 8.56038 13.6837 9.25655ZM24.773 19.6085C25.4692 20.3047 25.9014 21.2676 25.9014 22.3303C25.9014 23.3929 25.4692 24.3558 24.773 25.0533C24.0769 25.7495 23.114 26.1817 22.05 26.1817C20.9872 26.1817 20.0244 25.7495 19.3282 25.0533C18.6321 24.3572 18.1999 23.3943 18.1999 22.3303C18.1999 21.2675 18.6307 20.3047 19.3282 19.6085C20.0244 18.9124 20.9873 18.4802 22.05 18.4802C23.1127 18.4802 24.0755 18.911 24.773 19.6085ZM12.5457 13.5618C12.9506 13.1569 13.2022 12.5948 13.2022 11.9766C13.2022 11.3584 12.9506 10.7977 12.5457 10.3915C12.1409 9.98665 11.5801 9.73497 10.9606 9.73497C10.3424 9.73497 9.78162 9.98663 9.37543 10.3915C8.97061 10.7963 8.71893 11.3584 8.71893 11.9766C8.71893 12.5948 8.97059 13.1556 9.37543 13.5618C9.78025 13.9666 10.3424 14.2183 10.9606 14.2183C11.5788 14.2183 12.1395 13.9666 12.5457 13.5618Z" fill="#1DBBD8"/>
</svg>
