<svg width="29" height="36" viewBox="0 0 29 36" fill="none" xmlns="http://www.w3.org/2000/svg">
<path d="M2.00072 34.0117C2.49152 34.2476 3.03931 34.3391 3.58015 34.2754C4.12099 34.2117 4.63256 33.9955 5.05513 33.652C5.30579 33.4305 5.63211 33.3139 5.96641 33.3266C6.53921 33.3266 6.78005 33.5284 7.29427 34.0279C7.66808 34.4613 8.13093 34.8091 8.65129 35.0474C9.17164 35.2858 9.73727 35.4092 10.3096 35.4092C10.882 35.4092 11.4476 35.2858 11.9679 35.0474C12.4883 34.8091 12.9512 34.4613 13.325 34.0279C13.8457 33.5284 14.0784 33.3266 14.6496 33.3266C15.2208 33.3266 15.4535 33.5284 15.9726 34.0279C16.3459 34.4604 16.8081 34.8074 17.3276 35.0452C17.847 35.283 18.4117 35.4061 18.983 35.4061C19.5544 35.4061 20.119 35.283 20.6385 35.0452C21.158 34.8074 21.6201 34.4604 21.9935 34.0279C22.5142 33.5284 22.7469 33.3266 23.3181 33.3266C23.6456 33.3134 23.9657 33.4257 24.2131 33.6406C24.6373 33.9837 25.1502 34.1992 25.6921 34.262C26.234 34.3249 26.7826 34.2324 27.274 33.9954C27.7549 33.7659 28.1604 33.4042 28.4432 32.9526C28.7259 32.501 28.8741 31.9782 28.8704 31.4454V3.04775C28.8695 2.29388 28.5701 1.57102 28.0377 1.03734C27.5052 0.503658 26.783 0.202593 26.0292 0.200012H3.24722C2.49222 0.200874 1.76838 0.501179 1.23451 1.03505C0.700645 1.56892 0.400339 2.29275 0.399478 3.04775V31.4568C0.395885 31.9908 0.544609 32.5148 0.828214 32.9673C1.11182 33.4198 1.51855 33.7821 2.00072 34.0117ZM12.1973 6.70914H21.1473C21.471 6.70914 21.7814 6.83772 22.0103 7.0666C22.2392 7.29548 22.3678 7.60591 22.3678 7.9296C22.3678 8.25328 22.2392 8.56371 22.0103 8.79259C21.7814 9.02147 21.471 9.15006 21.1473 9.15006H12.1973C11.8736 9.15006 11.5631 9.02147 11.3343 8.79259C11.1054 8.56371 10.9768 8.25328 10.9768 7.9296C10.9768 7.60591 11.1054 7.29548 11.3343 7.0666C11.5631 6.83772 11.8736 6.70914 12.1973 6.70914ZM12.1973 14.8455H21.1473C21.471 14.8455 21.7814 14.9741 22.0103 15.203C22.2392 15.4319 22.3678 15.7423 22.3678 16.066C22.3678 16.3897 22.2392 16.7001 22.0103 16.929C21.7814 17.1579 21.471 17.2865 21.1473 17.2865H12.1973C11.8736 17.2865 11.5631 17.1579 11.3343 16.929C11.1054 16.7001 10.9768 16.3897 10.9768 16.066C10.9768 15.7423 11.1054 15.4319 11.3343 15.203C11.5631 14.9741 11.8736 14.8455 12.1973 14.8455ZM12.1973 22.9819H21.1473C21.471 22.9819 21.7814 23.1105 22.0103 23.3394C22.2392 23.5683 22.3678 23.8787 22.3678 24.2024C22.3678 24.5261 22.2392 24.8365 22.0103 25.0654C21.7814 25.2943 21.471 25.4229 21.1473 25.4229H12.1973C11.8736 25.4229 11.5631 25.2943 11.3343 25.0654C11.1054 24.8365 10.9768 24.5261 10.9768 24.2024C10.9768 23.8787 11.1054 23.5683 11.3343 23.3394C11.5631 23.1105 11.8736 22.9819 12.1973 22.9819ZM8.12906 6.30232C8.45091 6.30232 8.76553 6.39775 9.03313 6.57656C9.30074 6.75537 9.50931 7.00952 9.63247 7.30686C9.75564 7.60421 9.78786 7.9314 9.72507 8.24706C9.66229 8.56273 9.5073 8.85268 9.27972 9.08026C9.05214 9.30784 8.76219 9.46282 8.44653 9.52561C8.13087 9.5884 7.80368 9.55617 7.50633 9.43301C7.20898 9.30984 6.95483 9.10127 6.77603 8.83367C6.59722 8.56606 6.50178 8.25144 6.50178 7.9296C6.50178 7.49801 6.67323 7.08411 6.9784 6.77894C7.28358 6.47376 7.69748 6.30232 8.12906 6.30232ZM8.12906 14.4387C8.45091 14.4387 8.76553 14.5342 9.03313 14.713C9.30074 14.8918 9.50931 15.1459 9.63247 15.4433C9.75564 15.7406 9.78786 16.0678 9.72507 16.3835C9.66229 16.6991 9.5073 16.9891 9.27972 17.2167C9.05214 17.4442 8.76219 17.5992 8.44653 17.662C8.13087 17.7248 7.80368 17.6926 7.50633 17.5694C7.20898 17.4462 6.95483 17.2377 6.77603 16.9701C6.59722 16.7025 6.50178 16.3878 6.50178 16.066C6.50178 15.6344 6.67323 15.2205 6.9784 14.9153C7.28358 14.6102 7.69748 14.4387 8.12906 14.4387ZM8.12906 22.5751C8.45091 22.5751 8.76553 22.6706 9.03313 22.8494C9.30074 23.0282 9.50931 23.2823 9.63247 23.5797C9.75564 23.877 9.78786 24.2042 9.72507 24.5199C9.66229 24.8355 9.5073 25.1255 9.27972 25.3531C9.05214 25.5806 8.76219 25.7356 8.44653 25.7984C8.13087 25.8612 7.80368 25.829 7.50633 25.7058C7.20898 25.5827 6.95483 25.3741 6.77603 25.1065C6.59722 24.8389 6.50178 24.5243 6.50178 24.2024C6.50178 23.7708 6.67323 23.3569 6.9784 23.0517C7.28358 22.7466 7.69748 22.5751 8.12906 22.5751Z" fill="#1DBBD8"/>
</svg>
