<svg width="41" height="40" viewBox="0 0 41 40" fill="none" xmlns="http://www.w3.org/2000/svg">
<path d="M40.549 19.9981L39.8353 21.4741V18.1763C39.9105 18.2274 39.9861 18.279 40.0604 18.3306C40.3069 18.5218 40.4869 18.7858 40.5746 19.0852C40.6623 19.3846 40.6534 19.7041 40.549 19.9981ZM22.6072 8.73531C20.3503 6.23717 18.3672 3.50471 16.6918 0.584592C16.4518 0.184224 16.0991 -0.186859 15.7302 0.103801L10.7911 4.01351C14.0714 6.04226 17.5708 7.693 21.2226 8.93418C21.6894 8.86338 22.1509 8.79708 22.6072 8.73531ZM18.7487 9.32013C15.2 7.97412 11.8218 6.21577 8.68352 4.08125C8.29364 3.82512 7.81329 3.64417 7.60917 4.06421L4.86604 9.73536C9.4919 10.2026 14.159 10.063 18.7487 9.32013ZM0.572142 21.2805L0.801173 21.4369V18.1387L0.0852318 19.6187C-0.018867 19.9117 -0.0278417 20.23 0.0595866 20.5284C0.147015 20.8268 0.326386 21.09 0.572142 21.2805ZM38.6136 11.1694V28.4477C38.6189 28.5061 38.6103 28.5649 38.5886 28.6194C38.5668 28.6738 38.5326 28.7224 38.4886 28.7611C38.3626 28.8394 38.2222 28.8917 38.0757 28.9148C37.9291 28.9379 37.7794 28.9314 37.6354 28.8958C32.4259 28.0872 26.8906 28.2209 20.2155 29.3167C13.6816 30.3893 8.26961 30.5213 3.18371 29.7315C2.87957 29.667 2.60353 29.5083 2.39492 29.2778C2.18631 29.0473 2.05579 28.7568 2.02195 28.4477V11.1694C2.01657 11.1102 2.02525 11.0506 2.04728 10.9954C2.0693 10.9402 2.10405 10.8909 2.1487 10.8517C2.31291 10.7361 2.51178 10.6805 2.7121 10.6939C8.08297 11.4946 13.6046 11.4312 20.4139 10.2979C26.9584 9.22397 32.3712 9.0911 37.4484 9.88134C37.7535 9.94603 38.0304 10.1054 38.2396 10.3367C38.4489 10.568 38.5797 10.8594 38.6136 11.1694ZM9.31642 20.4378C8.19006 20.3713 6.98895 20.2922 5.78129 20.1222C5.69936 20.1052 5.61482 20.1053 5.53289 20.1223C5.45097 20.1393 5.37341 20.1729 5.305 20.2211C5.23659 20.2693 5.17879 20.331 5.13516 20.4024C5.09154 20.4738 5.06302 20.5534 5.05138 20.6362C5.03973 20.7191 5.0452 20.8035 5.06744 20.8841C5.08969 20.9648 5.12824 21.04 5.18071 21.1052C5.23319 21.1704 5.29847 21.2241 5.37252 21.263C5.44658 21.302 5.52784 21.3253 5.61127 21.3316C6.86395 21.5064 8.09346 21.589 9.24474 21.6568C9.32786 21.6672 9.41225 21.6605 9.49267 21.637C9.5731 21.6136 9.64784 21.5738 9.71227 21.5203C9.77671 21.4667 9.82946 21.4005 9.86725 21.3257C9.90505 21.251 9.92709 21.1692 9.93201 21.0856C9.93693 21.0019 9.92462 20.9182 9.89584 20.8395C9.86707 20.7608 9.82244 20.6889 9.76473 20.6281C9.70702 20.5674 9.63745 20.5192 9.56033 20.4864C9.48322 20.4537 9.4002 20.4371 9.31642 20.4378ZM25.912 13.8597C22.6689 11.3971 17.3837 12.8015 14.6488 15.674C10.177 20.026 12.4577 27.0167 18.8247 27.0351C21.5218 26.9729 24.0886 25.8632 25.9815 23.941C28.9554 21.1061 29.2421 16.303 25.912 13.8597ZM35.023 18.2829C33.873 18.1212 32.7384 18.0351 31.3891 17.9556C31.2333 17.9559 31.0834 18.0157 30.9701 18.1227C30.8569 18.2298 30.7887 18.376 30.7795 18.5316C30.7704 18.6872 30.821 18.8404 30.9209 18.9599C31.0209 19.0795 31.1627 19.1564 31.3174 19.175C32.6724 19.2493 33.7878 19.3499 34.9386 19.4985C35.091 19.4947 35.2364 19.4343 35.3465 19.329C35.4567 19.2237 35.5235 19.0811 35.5341 18.9291C35.5446 18.7771 35.4981 18.6266 35.4036 18.5071C35.3091 18.3876 35.1733 18.3077 35.023 18.2829ZM18.0275 30.8779C20.2842 33.3751 22.2672 36.1067 23.9425 39.026C24.182 39.4264 24.5361 39.8018 24.901 39.5147L29.8423 35.6024C26.5631 33.5728 23.0645 31.9213 19.4135 30.6795C18.9464 30.7503 18.4844 30.8164 18.0275 30.8779ZM21.8882 30.2935C25.4353 31.6391 28.8121 33.3964 31.9494 35.5294C32.3393 35.7855 32.8236 35.9695 33.0251 35.5521L35.77 29.8779C31.1444 29.4113 26.4776 29.5511 21.8882 30.2935ZM27.1074 18.6947C27.0956 23.7648 19.5922 27.7969 15.4443 24.7732C14.8429 24.3281 14.3555 23.747 14.0219 23.0773C13.6883 22.4076 13.518 21.6684 13.5251 20.9203C13.4997 17.4765 17.1057 14.4812 20.431 13.934C23.7922 13.2189 27.1105 15.2369 27.1074 18.6947ZM22.4591 20.8657C22.4859 20.5671 22.4206 20.2675 22.2722 20.0071C22.1237 19.7467 21.8992 19.5379 21.6286 19.4089C21.2156 19.2496 20.774 19.1775 20.3318 19.1973C19.396 19.1733 19.396 19.1007 19.396 18.7515V18.522C19.3693 17.8839 20.4913 17.1671 21.0879 17.6247C21.1367 17.6649 21.1755 17.7158 21.2015 17.7734C21.2275 17.8309 21.2399 17.8937 21.2379 17.9569C21.2324 18.0404 21.2441 18.1242 21.2723 18.2031C21.3005 18.2819 21.3446 18.3541 21.4018 18.4152C21.4591 18.4763 21.5282 18.525 21.6051 18.5583C21.6819 18.5917 21.7647 18.6088 21.8485 18.6088C21.9322 18.6088 22.015 18.5917 22.0918 18.5583C22.1687 18.525 22.2378 18.4763 22.2951 18.4152C22.3523 18.3541 22.3964 18.2819 22.4246 18.2031C22.4528 18.1242 22.4645 18.0404 22.4591 17.9569C22.4552 17.5383 22.297 17.1358 22.0146 16.8267C21.7323 16.5176 21.3458 16.3236 20.9293 16.282V15.8471C20.9191 15.6921 20.8504 15.5467 20.737 15.4405C20.6236 15.3343 20.474 15.2752 20.3187 15.2752C20.1633 15.2752 20.0138 15.3343 19.9004 15.4405C19.787 15.5467 19.7182 15.6921 19.7081 15.8471V16.4472C19.242 16.62 18.8429 16.9362 18.568 17.3503C18.2931 17.7643 18.1566 18.2549 18.1783 18.7515C18.222 20.2297 19.2592 20.4059 20.3042 20.4181C21.4096 20.4443 21.2195 20.5492 21.2413 21.0925C21.2676 21.7324 20.1465 22.4514 19.5494 21.9925C19.5007 21.9523 19.4618 21.9014 19.4358 21.8438C19.4098 21.7862 19.3974 21.7234 19.3995 21.6603C19.3893 21.5053 19.3206 21.3599 19.2072 21.2537C19.0938 21.1475 18.9442 21.0884 18.7889 21.0884C18.6335 21.0884 18.484 21.1475 18.3706 21.2537C18.2572 21.3599 18.1884 21.5053 18.1783 21.6603C18.1819 22.0788 18.3401 22.4813 18.6225 22.7902C18.9049 23.0992 19.2915 23.2928 19.7081 23.3339V23.7679C19.7182 23.9229 19.787 24.0683 19.9004 24.1745C20.0138 24.2807 20.1633 24.3398 20.3187 24.3398C20.474 24.3398 20.6236 24.2807 20.737 24.1745C20.8504 24.0683 20.9191 23.9229 20.9293 23.7679V23.1695C21.395 22.9964 21.7939 22.6802 22.0687 22.2663C22.3436 21.8524 22.4802 21.3621 22.4591 20.8657Z" fill="#1DBBD8"/>
</svg>
