<svg width="39" height="33" viewBox="0 0 39 33" fill="none" xmlns="http://www.w3.org/2000/svg">
<path d="M37.3291 15.24H28.6659C26.4569 15.24 24.6621 17.0347 24.6621 19.2437C24.6621 21.445 26.4569 23.2398 28.6659 23.2398H37.3291C38.2265 23.2398 38.9513 22.515 38.9513 21.6176V16.8622C38.9513 15.9648 38.2265 15.24 37.3291 15.24ZM28.7502 21.8707C27.3006 21.8707 26.1271 20.6895 26.1271 19.2475C26.1271 17.7979 27.3006 16.6244 28.7502 16.6244C30.1922 16.6244 31.3734 17.7979 31.3734 19.2475C31.3734 20.6857 30.1922 21.8707 28.7502 21.8707Z" fill="#1DBBD8"/>
<path d="M28.7491 17.9321C28.0243 17.9321 27.4375 18.5189 27.4375 19.2437C27.4375 19.9608 28.0243 20.5476 28.7491 20.5476C29.4662 20.5476 30.053 19.9608 30.053 19.2437C30.053 18.5189 29.4662 17.9321 28.7491 17.9321Z" fill="#1DBBD8"/>
<path d="M23.3498 19.2437C23.3498 16.3099 25.7314 13.9284 28.6652 13.9284H35.7254V8.01864C35.7254 7.15576 35.0274 6.45779 34.1722 6.45779H5.14123C5.07987 6.46546 5.03002 6.46546 4.96866 6.45779H2.17294C1.31006 6.45779 0.600586 7.15576 0.600586 8.01864V30.4726C0.600586 31.3278 1.31006 32.0258 2.17294 32.0258H34.1722C35.0274 32.0258 35.7254 31.3278 35.7254 30.4726V24.5513H28.6652C25.7314 24.5513 23.3498 22.1698 23.3498 19.2437Z" fill="#1DBBD8"/>
<path d="M29.4861 1.19998C29.3903 0.854828 29.1678 0.559533 28.8572 0.379288C28.5389 0.199042 28.1746 0.153022 27.8217 0.248897L9.97363 5.1462H30.5638L29.4861 1.19998Z" fill="#1DBBD8"/>
</svg>
